<svg xmlns="http://www.w3.org/2000/svg" viewBox="0 0 1200 800" width="1200" height="800" role="img" aria-label="A stylised hotel entrance at dusk">
  <defs>
    <linearGradient id="g-sky" x1="0" y1="0" x2="0" y2="1">
      <stop offset="0%" stop-color="#1d2a4d"/><stop offset="45%" stop-color="#7c5563"/>
      <stop offset="76%" stop-color="#d1885d"/><stop offset="100%" stop-color="#f2c68d"/>
    </linearGradient>
    <linearGradient id="g-stone" x1="0" y1="0" x2="0" y2="1">
      <stop offset="0%" stop-color="#efe3cb"/><stop offset="100%" stop-color="#cbb695"/>
    </linearGradient>
    <radialGradient id="g-lobby" cx="0.5" cy="0.85" r="0.8">
      <stop offset="0%" stop-color="#ffe6ac"/><stop offset="100%" stop-color="#c98d3f"/>
    </radialGradient>
    <radialGradient id="g-moonglow" cx="0.5" cy="0.5" r="0.5">
      <stop offset="0%" stop-color="#fff6dd" stop-opacity="0.34"/>
      <stop offset="55%" stop-color="#fff6dd" stop-opacity="0.10"/>
      <stop offset="100%" stop-color="#fff6dd" stop-opacity="0"/>
    </radialGradient>
  </defs>

  <rect width="1200" height="800" fill="url(#g-sky)"/>
  <circle cx="960" cy="150" r="150" fill="url(#g-moonglow)"/>
  <path d="M958 118 a46 46 0 1 0 34 76 a54 54 0 1 1 -34 -76z" fill="#fff6dd" opacity="0.92"/>

  <!-- distant towers -->
  <g fill="#2a3355" opacity="0.55">
    <rect x="60" y="250" width="110" height="330"/><rect x="200" y="310" width="80" height="270"/>
    <rect x="1010" y="285" width="130" height="295"/>
  </g>

  <!-- main facade -->
  <rect x="150" y="180" width="900" height="470" fill="url(#g-stone)"/>
  <rect x="150" y="180" width="900" height="26" fill="#8f9aad" opacity="0.6"/>
  <rect x="150" y="404" width="900" height="30" fill="#8f9aad" opacity="0.5"/>
  <g>
    <rect x="196" y="226" width="62" height="40" rx="2" fill="#ffdf9e" opacity="0.82"/>
    <rect x="196" y="292" width="62" height="40" rx="2" fill="#31405e" opacity="0.5"/>
    <rect x="196" y="358" width="62" height="40" rx="2" fill="#ffdf9e" opacity="0.8"/>
    <rect x="292" y="226" width="62" height="40" rx="2" fill="#31405e" opacity="0.5"/>
    <rect x="292" y="292" width="62" height="40" rx="2" fill="#ffdf9e" opacity="0.8"/>
    <rect x="292" y="358" width="62" height="40" rx="2" fill="#31405e" opacity="0.5"/>
    <rect x="388" y="226" width="62" height="40" rx="2" fill="#31405e" opacity="0.5"/>
    <rect x="388" y="292" width="62" height="40" rx="2" fill="#ffdf9e" opacity="0.72"/>
    <rect x="388" y="358" width="62" height="40" rx="2" fill="#ffdf9e" opacity="0.92"/>
    <rect x="484" y="226" width="62" height="40" rx="2" fill="#31405e" opacity="0.5"/>
    <rect x="484" y="292" width="62" height="40" rx="2" fill="#ffdf9e" opacity="0.99"/>
    <rect x="484" y="358" width="62" height="40" rx="2" fill="#31405e" opacity="0.5"/>
    <rect x="580" y="226" width="62" height="40" rx="2" fill="#31405e" opacity="0.5"/>
    <rect x="580" y="292" width="62" height="40" rx="2" fill="#31405e" opacity="0.5"/>
    <rect x="580" y="358" width="62" height="40" rx="2" fill="#ffdf9e" opacity="0.61"/>
    <rect x="676" y="226" width="62" height="40" rx="2" fill="#ffdf9e" opacity="0.62"/>
    <rect x="676" y="292" width="62" height="40" rx="2" fill="#ffdf9e" opacity="0.7"/>
    <rect x="676" y="358" width="62" height="40" rx="2" fill="#ffdf9e" opacity="0.79"/>
    <rect x="772" y="226" width="62" height="40" rx="2" fill="#ffdf9e" opacity="0.94"/>
    <rect x="772" y="292" width="62" height="40" rx="2" fill="#ffdf9e" opacity="0.86"/>
    <rect x="772" y="358" width="62" height="40" rx="2" fill="#ffdf9e" opacity="0.86"/>
    <rect x="868" y="226" width="62" height="40" rx="2" fill="#ffdf9e" opacity="0.71"/>
    <rect x="868" y="292" width="62" height="40" rx="2" fill="#31405e" opacity="0.5"/>
    <rect x="868" y="358" width="62" height="40" rx="2" fill="#31405e" opacity="0.5"/>
    <rect x="964" y="226" width="62" height="40" rx="2" fill="#31405e" opacity="0.5"/>
    <rect x="964" y="292" width="62" height="40" rx="2" fill="#31405e" opacity="0.5"/>
    <rect x="964" y="358" width="62" height="40" rx="2" fill="#ffdf9e" opacity="0.69"/>
  </g>

  <!-- entrance arch -->
  <path d="M470 650 V 500 a130 130 0 0 1 260 0 V 650 Z" fill="#8a6a3c"/>
  <path d="M486 650 V 502 a114 114 0 0 1 228 0 V 650 Z" fill="url(#g-lobby)"/>
  <g stroke="#a5793f" stroke-width="3" opacity="0.65">
    <line x1="530" y1="470" x2="530" y2="650"/><line x1="600" y1="446" x2="600" y2="650"/>
    <line x1="670" y1="470" x2="670" y2="650"/>
  </g>
  <rect x="462" y="642" width="276" height="14" rx="3" fill="#6f5330"/>

  <g>
      <rect x="538" y="264" width="124" height="78" rx="6" fill="#f6efdd" stroke="#b7a37e" stroke-width="2"/>
      <text x="600" y="292" font-family="Georgia, 'Times New Roman', serif" font-size="19" letter-spacing="4.5" text-anchor="middle" fill="#4a3d28">HOTEL</text>
      <line x1="556" y1="301" x2="644" y2="301" stroke="#4a3d28" stroke-width="1" opacity="0.35"/>
      <path d="M558 312 l3.2 6.5 7.2 1-5.2 5.1 1.2 7.2-6.4-3.4-6.4 3.4 1.2-7.2-5.2-5.1 7.2-1z" fill="#4a3d28" opacity="0.85"/><path d="M579 312 l3.2 6.5 7.2 1-5.2 5.1 1.2 7.2-6.4-3.4-6.4 3.4 1.2-7.2-5.2-5.1 7.2-1z" fill="#4a3d28" opacity="0.85"/><path d="M600 312 l3.2 6.5 7.2 1-5.2 5.1 1.2 7.2-6.4-3.4-6.4 3.4 1.2-7.2-5.2-5.1 7.2-1z" fill="#4a3d28" opacity="0.85"/><path d="M621 312 l3.2 6.5 7.2 1-5.2 5.1 1.2 7.2-6.4-3.4-6.4 3.4 1.2-7.2-5.2-5.1 7.2-1z" fill="#4a3d28" opacity="0.85"/>
    </g>

  <!-- lamps -->
  <g fill="#ffe7ae" opacity="0.75">
    <circle cx="360" cy="470" r="9"/><circle cx="840" cy="470" r="9"/>
  </g>
  <g fill="#fff0c4" opacity="0.16">
    <path d="M360 470 l52 120 h-104 z"/><path d="M840 470 l52 120 h-104 z"/>
  </g>

  <g transform="translate(300,660) scale(1.05)" opacity="0.92">
      <path d="M-5 0 Q -2 -68 -12 -130 L 3 -132 Q 9 -68 6 0 Z" fill="#20361f"/>
      <g transform="translate(-4,-132)"><path d="M0 0 Q -40 -50 -94 -28 Q -44 -48 0 0 Z" fill="#20361f"/><path d="M0 0 Q -24 -36 -56 -20 Q -26 -32 0 0 Z" fill="#20361f"/><path d="M0 0 Q -8 -23 -19 -12 Q -9 -16 0 0 Z" fill="#20361f"/><path d="M0 0 Q 8 -23 19 -12 Q 9 -16 0 0 Z" fill="#20361f"/><path d="M0 0 Q 24 -36 56 -20 Q 26 -32 0 0 Z" fill="#20361f"/><path d="M0 0 Q 40 -50 94 -28 Q 44 -48 0 0 Z" fill="#20361f"/></g>
    </g>
  <g transform="translate(905,668) scale(1.18)" opacity="0.92">
      <path d="M-5 0 Q -2 -68 -12 -130 L 3 -132 Q 9 -68 6 0 Z" fill="#1b2f1b"/>
      <g transform="translate(-4,-132)"><path d="M0 0 Q -40 -50 -94 -28 Q -44 -48 0 0 Z" fill="#1b2f1b"/><path d="M0 0 Q -24 -36 -56 -20 Q -26 -32 0 0 Z" fill="#1b2f1b"/><path d="M0 0 Q -8 -23 -19 -12 Q -9 -16 0 0 Z" fill="#1b2f1b"/><path d="M0 0 Q 8 -23 19 -12 Q 9 -16 0 0 Z" fill="#1b2f1b"/><path d="M0 0 Q 24 -36 56 -20 Q 26 -32 0 0 Z" fill="#1b2f1b"/><path d="M0 0 Q 40 -50 94 -28 Q 44 -48 0 0 Z" fill="#1b2f1b"/></g>
    </g>

  <rect x="0" y="650" width="1200" height="150" fill="#39332e"/>
  <rect x="0" y="650" width="1200" height="8" fill="#4d453d"/>
  <g stroke="#5c5349" stroke-width="4" opacity="0.7">
    <line x1="140" y1="720" x2="260" y2="720"/><line x1="520" y1="740" x2="680" y2="740"/>
    <line x1="900" y1="716" x2="1030" y2="716"/>
  </g>
</svg>
